<?xml version="1.0" encoding="utf-8"?>
<!-- Generator: Adobe Illustrator 16.0.0, SVG Export Plug-In . SVG Version: 6.00 Build 0)  -->
<!DOCTYPE svg PUBLIC "-//W3C//DTD SVG 1.1//EN" "http://www.w3.org/Graphics/SVG/1.1/DTD/svg11.dtd">
<svg version="1.1" id="Layer_1" xmlns="http://www.w3.org/2000/svg" xmlns:xlink="http://www.w3.org/1999/xlink" x="0px" y="0px"
	 width="20.25px" height="25px" viewBox="-6.25 0.518 20.25 25" enable-background="new -6.25 0.518 20.25 25" xml:space="preserve"
	>
<path fill="#1B1D1F" d="M3.875,0.666c-5.146,0-9.333,4.187-9.333,9.334c0,0.491,0.042,0.977,0.115,1.453l-0.003-0.005
	c0,0,0.004,0.024,0.004,0.028c0.006,0.029,0.012,0.058,0.016,0.083c0.04,0.2,0.142,0.667,0.324,1.319
	c0.009,0.029,0.015,0.061,0.025,0.091c0.678,2.367,2.455,7.009,6.421,10.492H1.412c1.609,1.604,2.463,1.908,2.463,1.908
	C5,24.824,6.307,23.462,6.307,23.462H6.306c3.979-3.492,5.746-8.154,6.42-10.515c0.06-0.181,0.101-0.366,0.146-0.55
	c0.083-0.313,0.134-0.542,0.167-0.703c0.104-0.555,0.171-1.12,0.171-1.694C13.207,4.854,9.021,0.666,3.875,0.666z M3.875,15.035
	c-2.771,0-5.035-2.264-5.035-5.035c0-2.771,2.264-5.036,5.035-5.036S8.91,7.229,8.91,10C8.91,12.771,6.646,15.035,3.875,15.035z"/>
</svg>
