<?xml version="1.0" encoding="utf-8"?>
<!-- Generator: Adobe Illustrator 16.0.0, SVG Export Plug-In . SVG Version: 6.00 Build 0)  -->
<!DOCTYPE svg PUBLIC "-//W3C//DTD SVG 1.1//EN" "http://www.w3.org/Graphics/SVG/1.1/DTD/svg11.dtd">
<svg version="1.1" id="Layer_1" xmlns="http://www.w3.org/2000/svg" xmlns:xlink="http://www.w3.org/1999/xlink" x="0px" y="0px"
	 width="16px" height="20px" viewBox="-1.021 6.61 16 20" enable-background="new -1.021 6.61 16 20" xml:space="preserve">
<path fill="#818890" d="M6.987,6.581c-4.369,0-7.924,3.4-7.924,7.582c0,0.399,0.036,0.794,0.097,1.181l-0.002-0.004
	c0,0,0.003,0.019,0.003,0.022c0.005,0.023,0.01,0.047,0.013,0.067c0.034,0.162,0.121,0.542,0.275,1.071
	c0.008,0.023,0.013,0.05,0.022,0.073c0.575,1.924,2.084,5.695,5.452,8.523H4.896c1.367,1.302,2.091,1.55,2.091,1.55
	c0.957-0.442,2.065-1.55,2.065-1.55h0c3.379-2.836,4.878-6.623,5.452-8.54c0.051-0.147,0.086-0.298,0.124-0.448
	c0.069-0.253,0.112-0.44,0.142-0.569c0.088-0.452,0.145-0.91,0.145-1.377C14.912,9.982,11.357,6.581,6.987,6.581z M6.987,18.253
	c-2.352,0-4.275-1.84-4.275-4.091s1.923-4.091,4.275-4.091c2.354,0,4.276,1.84,4.276,4.091S9.341,18.253,6.987,18.253z"/>
</svg>
