<?xml version="1.0" encoding="utf-8"?>
<!-- Generator: Adobe Illustrator 16.0.0, SVG Export Plug-In . SVG Version: 6.00 Build 0)  -->
<!DOCTYPE svg PUBLIC "-//W3C//DTD SVG 1.1//EN" "http://www.w3.org/Graphics/SVG/1.1/DTD/svg11.dtd">
<svg version="1.1" id="Capa_1" xmlns="http://www.w3.org/2000/svg" xmlns:xlink="http://www.w3.org/1999/xlink" x="0px" y="0px"
	 width="31px" height="26px" viewBox="491.042 237 31 26" enable-background="new 491.042 237 31 26" xml:space="preserve">
<g>
	<g>
		<path fill="#1B1D1F" d="M506.574,246.039c-2.765,0-5.02,2.254-5.02,5.018c0,2.763,2.255,4.981,5.02,4.981
			c2.761,0,5.016-2.255,5.016-5.016C511.59,248.257,509.335,246.039,506.574,246.039z"/>
	</g>
</g>
<path fill="#1B1D1F" d="M518.309,241.967h-3.219l-1.777-2.682c-0.672-1.006-1.845-1.61-3.052-1.61h-7.377
	c-1.208,0-2.381,0.604-3.052,1.61l-1.778,2.682h-3.219c-2.045,0-3.688,1.644-3.688,3.69v13.01c0,2.046,1.643,3.689,3.688,3.689
	h23.474c2.047,0,3.689-1.644,3.689-3.689v-13.01C521.998,243.61,520.355,241.967,518.309,241.967z M506.574,259.338
	c-4.596,0-8.318-3.724-8.318-8.315c0-4.595,3.722-8.284,8.318-8.284c4.593,0,8.316,3.723,8.316,8.316
	C514.891,255.614,511.167,259.338,506.574,259.338z M517.838,247.615c-0.688,0-1.25-0.56-1.25-1.25c0-0.688,0.562-1.249,1.25-1.249
	c0.687,0,1.248,0.561,1.248,1.249C519.086,247.055,518.524,247.615,517.838,247.615z"/>
</svg>
