<?xml version="1.0" encoding="utf-8"?>
<!-- Generator: Adobe Illustrator 16.0.0, SVG Export Plug-In . SVG Version: 6.00 Build 0)  -->
<!DOCTYPE svg PUBLIC "-//W3C//DTD SVG 1.1//EN" "http://www.w3.org/Graphics/SVG/1.1/DTD/svg11.dtd">
<svg version="1.1" id="Layer_1" xmlns="http://www.w3.org/2000/svg" xmlns:xlink="http://www.w3.org/1999/xlink" x="0px" y="0px"
	 width="14px" height="18px" viewBox="0 0 14 18" enable-background="new 0 0 14 18" xml:space="preserve">
<path fill="#E63D30" d="M7.036,0.107c-3.705,0-6.719,3.014-6.719,6.72c0,0.354,0.03,0.703,0.083,1.046L0.398,7.87
	c0,0,0.003,0.017,0.003,0.02C0.405,7.911,0.409,7.931,0.412,7.95c0.029,0.144,0.102,0.48,0.233,0.95
	c0.007,0.021,0.011,0.044,0.018,0.065c0.488,1.704,1.767,5.046,4.623,7.555H5.263c1.159,1.155,1.773,1.372,1.773,1.372
	c0.81-0.392,1.751-1.372,1.751-1.372H8.786c2.865-2.515,4.137-5.872,4.622-7.571c0.043-0.13,0.072-0.264,0.106-0.396
	c0.058-0.225,0.095-0.39,0.12-0.506c0.073-0.4,0.122-0.807,0.122-1.22C13.755,3.122,10.741,0.107,7.036,0.107z M7.036,10.452
	c-1.995,0-3.625-1.63-3.625-3.625c0-1.995,1.63-3.626,3.625-3.626c1.995,0,3.625,1.631,3.625,3.626
	C10.661,8.822,9.031,10.452,7.036,10.452z"/>
</svg>
